/* XPM */
static char *large-lskat[] = {
/* width height num_colors chars_per_pixel */
"    48    48       32            1",
/* colors */
". c #000000",
"# c #00ff00",
"a c #08185a",
"b c #08186b",
"c c #101852",
"d c #10185a",
"e c #181852",
"f c #211852",
"g c #291852",
"h c #31184a",
"i c #39184a",
"j c #42184a",
"k c #4a1842",
"l c #521842",
"m c #5a0810",
"n c #5a1842",
"o c #631839",
"p c #6b1839",
"q c #731839",
"r c #7b1018",
"s c #7b1839",
"t c #841831",
"u c #8c1831",
"v c #941818",
"w c #941831",
"x c #9c1829",
"y c #ad1829",
"z c #b52121",
"A c #bd2121",
"B c #ff0000",
"C c #ffff00",
"D c #ffffff",
/* pixels */
"bbbbbbbbbbbbbbbbbbbbbbbbbbbbbbbbbbbbbbbbbbbbbbbb",
"bcddcddcddcddcddcddcddcddcddcddcddcddcddcddcddcb",
"bddadcadaddqzzpfAdAAAdadaddadaddadacdadaddadaddb",
"bdcadadacdqAldkAAafAAdadacaddacadadacodadacdadab",
"bddacaddadzAddanAdaAAdadaddacaddadadfzdadadacddb",
"bdcadadacazAtddfAadAAdadacadadacdadcwAdadacdadab",
"bddacaddadnAAxgdadaAAdaAAAidguAAsedwAAAAdadadacb",
"bdcadadacdanzAAlddaAAddsoedaxzgjAzdaAAdadadacdab",
"bddacaddadadgxAAnddAAdunadaddadfAAdaAAdadacdaddb",
"bdcadadacaAedDrDDDDDDDDDDDDDdtzsAAdaAAdadadacadb",
"bddacaddadAldDDDDDDDDDDDDDDDsAjdAAadAAdadacdadab",
"bdcadadacaAzj.DAD.BAABDvDmDDzAjlAAdaAAiudadadcdb",
"bddacaddadAhnDDCD#DDCDBADADDetwjuApanzyhdaddadab",
"bdcadadacadad..CD.DDCD....DDdadddadadadadadacadb",
"bddacaddadadaDD.DCDDC.D.D.DDdadacadaddacaddadacb",
"bdcadadacdadaDDDD.C.D.B.D.DDdadadacdadaddacaddab",
"bddacaddadacdDD.DBB...B...DDdadacdadacadadacaddb",
"bdcadadacadadDDCDDBCCCB...DDdadadacaddadacdadadb",
"bddacaddadacaDDCDD..D..B.DDDDDDDDDDDDDdadacaddab",
"bdcadadacdadaDDC.CD.DCC.DDDDDDDDDDDDDDdadadcaddb",
"bddacaddadacdDDCCBDCCCCDDDDDDDDD..DDDDdadadacadb",
"bdcadadacadadDDC.BD.DDBDDDD..DD....DDDdadacdadab",
"bddacaddadacaDDC.BD.DDB..D...D.D.D.DDDdadadacddb",
"bdcDDDDDDDDDDDDDDD..CD.DDD..D.DBDDDDDDDDDDDDDdab",
"bddDBDDDDDDDDDDDDD..CDDDDDD.D.BBDDDDDDDDDDDDDddb",
"bdcBBDDDDDDDDDDDDDD.CDDDDD...DDBDBBDDDDDBBDDDdab",
"bddDDBDDDDDDDDDDDDD..BBDDD...DBDDBBDDDDBBBDDDddb",
"bdcBBDDDDDDDDDDDDDDDDDDDDDD.DDBBDDBDDDDDBDDDDdab",
"bddDDDDDDDDDDDDDDDDDDDDDDDDDDDDDDDDDDDDDDDDDDacb",
"bdcDDDDDDDDDDDDDDDadacaDDD...DDDDDBDDDDDBDDDDdab",
"bddDDDDDDDDDDDDDDDacadaDDD...DDDDBBDDDDBBBDDDddb",
"bdcDDDDDDBDBDDDDDDaddacDDDD.D.DDDBBDDBDBBDDDDdab",
"bddDDDDDDBBBDDDDDDadadaDDDDDD.DDDDDDBBDDDDDDDddb",
"bdcDDDDDDBBBDDDDDDaddacDDD...DDDDDDDBBDDDDDDDdab",
"bddDDDDDDDBDDDDDDDadacaDDD...DDDDBBDDDDBBDDDDddb",
"bdcDDDDDDDDDDDDDDDaddadDDDD.DDDDDBBDDDDBBBDDDdab",
"bddDDDDDDDDDDDDDDDacadaDDDDDDDDDDDBDDDDDBDDDDddb",
"bdcDDDDDDDDDDDDDBDaddacDDDDDDDDDDDDDDDDDDDDDDadb",
"bddDDDDDDDDDDDDDBBadadacadadacDDDDBDDDDDBBDBBadb",
"bdcDDDDDDDDDDDDBBDaddadacadadaDDDBBDDDDBBBDBDdab",
"bddDDDDDDDDDDDDBDDadacdadadcadDDDBBDDDDDBDDDDadb",
"bdcDDDDDDDDDDDDDBDaddadacdadadDDDDDDDDDDDDDBDdab",
"bddDDDDDDDDDDDDDDDacadadacaddaDDDDDDDDDDDDDBDddb",
"bdcadadacadadacadadadcadaddacadadacadadacadadacb",
"bddacadadacadadacaddadacdadadacadadacadadacadadb",
"bdcadaddadacdadaddacadadadacdadadcadaddacaddadab",
"bddacadacdadadacadaddacaddadacadaddacadaddacaddb",
"bbbbbbbbbbbbbbbbbbbbbbbbbbbbbbbbbbbbbbbbbbbbbbbd"
};
