/* XPM */
static char *lskat[] = {
/* width height num_colors chars_per_pixel */
"    32    32       20            1",
/* colors */
". c #000000",
"# c #08185a",
"a c #08186b",
"b c #101852",
"c c #10185a",
"d c #181852",
"e c #211852",
"f c #291852",
"g c #521842",
"h c #5a0810",
"i c #5a1842",
"j c #7b1839",
"k c #8c1831",
"l c #941831",
"m c #9c1829",
"n c #b52121",
"o c #bd2121",
"p c #ff0000",
"q c #ffff00",
"r c #ffffff",
/* pixels */
"abcbcbcbcbcbcbcbcbcbcbcbcbcbcbcb",
"ac#c#cccnneoooc##c#cccc#c##c#ccc",
"ac#bcccnocoo#oc##c#bccc#en#cc#cc",
"ac#cc##ooceococ##bc##b#cbobcbcc#",
"ac#cc#c#nogc#occld#mllncooocc#c#",
"ac#bccc#fmoicolk#cccleocio#cbccc",
"ac#bcccocrrrrrrrrrrjlco#co#cbcc#",
"ac#cc##oo.orpoprrhrnloociolcc#bc",
"ac#cc##cc.qrrrr...rccc#cc##cc##c",
"ac#bccc##r.rrr.rr.rcc##cccb#c##b",
"ac#bccc#cr.rp..p..rcc#c##bc##bcc",
"ac#cc##ccrqrpqqp..rcc##bccc#c##c",
"ac#cc#c##rq.r.qqrrrrrrrrrr#ccbcc",
"ac#bccc#crqqrqqqrrrrrr.rrr#cc##c",
"ac#bccc##rq.r.rp.r...rr.rr#cc#cc",
"acrrrrrrrrrr..r.rr.rrprrrrrrrrc#",
"acpprrrrrrrrr.rrrr..rppprrrprrc#",
"acrrrrrrrrrrr.pprr..prpprrpprrcc",
"acrrrrrrrrrrrrrrrrrrrrrrrrrrrr#b",
"acrrrrrrrrrr#cb#rr..rrrprrrprrc#",
"acrrrrprrrrr#c#brr.rrrpprppprrc#",
"acrrrrpprrrr#cc#rrrrrrrrpprrrrcc",
"acrrrrrprrrr#cb#rr..rrpprrpprrcc",
"acrrrrrrrrrr#c#crr.rrrpprrpprrc#",
"acrrrrrrrrrp#c#brrrrrrrrrrrrrr#c",
"acrrrrrrrrrp#cc##cc#rrrprrrprp#c",
"acrrrrrrrrpr#cbcc#b#rrpprrrprr#c",
"acrrrrrrrrrp#c#cbcc#rrrrrrrrrpc#",
"ac#cc##cc##cc#b##c#bc##bc##bc##b",
"ac#bc##bc##bccc#c##cb##cb##cb##c",
"ac#bc#c##cb##c#bccc##cccb##c#bcc",
"aaaaaaaaaaaaaaaaaaaaaaaaaaaaaaaa"
};
