/* XPM */
static char *mini-lskat[] = {
/* width height num_colors chars_per_pixel */
"    16    16       14            1",
/* colors */
". c #000000",
"# c #08185a",
"a c #08186b",
"b c #101852",
"c c #10185a",
"d c #211852",
"e c #291852",
"f c #5a1842",
"g c #941831",
"h c #b52121",
"i c #bd2121",
"j c #ff0000",
"k c #ffff00",
"l c #ffffff",
/* pixels */
"a##chdic##ccg##c",
"a#c#igccgcg#ggbc",
"a#cceicggcgif#bc",
"a#c#iijjllgifgcb",
"a#cc#.l.llc#cbc#",
"a#c#ckjk.lc#ccc#",
"a#cccklklll.l#c#",
"alllll.ll.lllllc",
"alllllljl.jjljlc",
"alllll#bl.lllllc",
"alljll#clllljllc",
"alllll##l.ljljlc",
"alllll#c#clllll#",
"alllll##bclllllc",
"a#c#c#ccc#b#b#b#",
"aaaaaaaaaaaaaaaa"
};
